<svg style="position: absolute; width: 0; height: 0; overflow: hidden;" version="1.1" xmlns="http://www.w3.org/2000/svg" xmlns:xlink="http://www.w3.org/1999/xlink">
<defs>
<symbol id="icon-logo" viewBox="0 0 32 32">
<title>logo</title>
<path class="ellipse" d="M16 1.92c7.776 0 14.080 6.304 14.080 14.080s-6.304 14.080-14.080 14.080c-7.776 0-14.080-6.304-14.080-14.080 0.009-7.772 6.308-14.071 14.079-14.080zM16 0c-8.837 0-16 7.163-16 16s7.163 16 16 16c8.837 0 16-7.163 16-16s-7.163-16-16-16z"></path>
<path class="letters" d="M15.424 13.456l-1.168 1.824c-0.25-0.384-0.565-0.704-0.932-0.953-0.273-0.186-0.592-0.298-0.936-0.311-0.013-0-0.024-0.001-0.035-0.001-0.199 0-0.383 0.066-0.531 0.178-0.128 0.087-0.214 0.232-0.222 0.397 0.004 0.169 0.070 0.32 0.176 0.434q0.176 0.208 1.056 0.832 1.408 0.976 1.856 1.68c0.281 0.427 0.448 0.951 0.448 1.515 0 0.002 0 0.004 0 0.006q0 1.088-0.912 2.048t-2.64 0.96c-0.023 0-0.050 0.001-0.077 0.001-0.634 0-1.235-0.142-1.773-0.395q-0.791-0.389-1.799-1.429l1.504-1.712q1.024 1.312 2.24 1.312c0.019 0.001 0.040 0.002 0.062 0.002 0.265 0 0.51-0.085 0.709-0.228 0.169-0.119 0.282-0.317 0.284-0.541-0.013-0.2-0.096-0.378-0.224-0.513q-0.224-0.256-1.2-0.944t-1.552-1.344c-0.372-0.449-0.6-1.029-0.608-1.662-0-0.017-0.001-0.036-0.001-0.054 0-0.783 0.367-1.48 0.939-1.928 0.594-0.483 1.352-0.773 2.178-0.773 0.024 0 0.047 0 0.070 0.001-0-0 0.003-0 0.007-0 1.268 0 2.389 0.627 3.070 1.588z"></path>
<path class="path3" d="M16.944 8.944h2.304q2.096 0 2.96 0.368c0.67 0.263 1.224 0.699 1.625 1.253 0.349 0.522 0.552 1.15 0.552 1.826 0 0.031-0 0.062-0.001 0.093 0 0.008 0 0.023 0 0.037 0 0.789-0.239 1.523-0.649 2.132-0.41 0.616-1 1.103-1.695 1.385q-1.113 0.457-3.641 0.489l-0.768 5.552h-2.48zM18.688 14.208q2-0.016 2.624-0.416c0.37-0.251 0.61-0.669 0.61-1.143 0-0.026-0.001-0.051-0.002-0.076 0-0.007 0.001-0.020 0.001-0.033 0-0.275-0.090-0.53-0.243-0.735-0.174-0.21-0.416-0.364-0.693-0.427q-0.472-0.13-1.864-0.13z"></path>
</symbol>
<symbol id="icon-github" viewBox="0 0 32 32">
<title>github</title>
<path class="path1" d="M16 2c-7.731 0-14 6.431-14 14.356 0 6.344 4.013 11.719 9.575 13.619 0.088 0.019 0.162 0.025 0.238 0.025 0.519 0 0.719-0.381 0.719-0.712 0-0.344-0.012-1.244-0.019-2.444-0.525 0.119-0.994 0.169-1.412 0.169-2.694 0-3.306-2.094-3.306-2.094-0.638-1.656-1.556-2.1-1.556-2.1-1.219-0.856-0.006-0.881 0.088-0.881 0.006 0 0.006 0 0.006 0 1.406 0.125 2.144 1.488 2.144 1.488 0.7 1.225 1.637 1.569 2.475 1.569 0.656 0 1.25-0.212 1.6-0.375 0.125-0.925 0.488-1.556 0.887-1.919-3.106-0.363-6.375-1.594-6.375-7.094 0-1.569 0.544-2.85 1.438-3.85-0.144-0.363-0.625-1.825 0.137-3.8 0 0 0.1-0.031 0.313-0.031 0.506 0 1.65 0.194 3.537 1.506 1.119-0.319 2.313-0.475 3.506-0.481 1.188 0.006 2.387 0.162 3.506 0.481 1.887-1.313 3.031-1.506 3.538-1.506 0.212 0 0.313 0.031 0.313 0.031 0.762 1.975 0.281 3.438 0.137 3.8 0.894 1.006 1.438 2.287 1.438 3.85 0 5.513-3.275 6.725-6.394 7.081 0.5 0.444 0.95 1.319 0.95 2.656 0 1.919-0.019 3.469-0.019 3.938 0 0.337 0.194 0.719 0.712 0.719 0.075 0 0.163-0.006 0.25-0.025 5.569-1.9 9.575-7.281 9.575-13.619 0-7.925-6.269-14.356-14-14.356z"></path>
</symbol>
<symbol id="icon-linkedin" viewBox="0 0 32 32">
<title>linkedin</title>
<path class="path1" d="M26.075 4h-20.025c-1.094 0-2.050 0.787-2.050 1.869v20.069c0 1.087 0.956 2.056 2.050 2.056h20.019c1.1 0 1.925-0.975 1.925-2.056v-20.069c0.006-1.081-0.825-1.869-1.919-1.869zM11.438 24h-3.438v-10.688h3.438v10.688zM9.838 11.688h-0.025c-1.1 0-1.813-0.819-1.813-1.844 0-1.044 0.731-1.844 1.856-1.844s1.813 0.794 1.838 1.844c0 1.025-0.713 1.844-1.856 1.844zM24 24h-3.438v-5.844c0-1.4-0.5-2.356-1.744-2.356-0.95 0-1.512 0.644-1.762 1.269-0.094 0.225-0.119 0.531-0.119 0.844v6.087h-3.438v-10.688h3.438v1.488c0.5-0.713 1.281-1.738 3.1-1.738 2.256 0 3.962 1.488 3.962 4.694v6.244z"></path>
</symbol>
<symbol id="icon-rss" viewBox="0 0 32 32">
<title>rss</title>
<path class="path1" d="M7.494 21.006c-1.925 0-3.494 1.569-3.494 3.488 0 1.925 1.569 3.475 3.494 3.475 1.931 0 3.494-1.556 3.494-3.475s-1.563-3.488-3.494-3.488z"></path>
<path class="path2" d="M4 12v4.994c3 0 5.881 0.887 8 3.006s3 4.994 3 8h5c0-8.744-7.25-16-16-16z"></path>
<path class="path3" d="M4 4v4.994c10.688 0 18.994 8.312 18.994 19.006h5.006c0-13.231-10.75-24-24-24z"></path>
</symbol>
<symbol id="icon-twitter" viewBox="0 0 32 32">
<title>twitter</title>
<path class="path1" d="M30.75 6.844c-1.087 0.481-2.25 0.806-3.475 0.956 1.25-0.75 2.212-1.938 2.663-3.35-1.169 0.694-2.462 1.2-3.844 1.469-1.106-1.181-2.681-1.919-4.419-1.919-3.344 0-6.050 2.712-6.050 6.056 0 0.475 0.050 0.938 0.156 1.381-5.031-0.25-9.494-2.662-12.475-6.331-0.519 0.894-0.819 1.938-0.819 3.044 0 2.1 1.075 3.956 2.7 5.044-1-0.025-1.938-0.3-2.75-0.756 0 0.025 0 0.050 0 0.075 0 2.938 2.088 5.381 4.856 5.937-0.506 0.137-1.044 0.212-1.594 0.212-0.388 0-0.769-0.038-1.138-0.113 0.769 2.406 3.006 4.156 5.656 4.206-2.069 1.625-4.681 2.594-7.519 2.594-0.487 0-0.969-0.031-1.444-0.087 2.669 1.738 5.85 2.738 9.262 2.738 11.144 0 17.231-9.231 17.231-17.238 0-0.262-0.006-0.525-0.019-0.781 1.181-0.856 2.206-1.919 3.019-3.138z"></path>
</symbol>
</defs>
</svg>
